<svg width="26" height="26" viewBox="0 0 26 26" fill="none" xmlns="http://www.w3.org/2000/svg">
<path d="M5.1565 1.86266L5.4937 2.19986L5.1565 1.86266L4.51389 2.50526C3.65869 3.36047 4.20799 4.82482 5.41467 4.90657L17.2421 5.70789C17.6116 5.73292 17.7797 6.18128 17.5179 6.44313L1.36795 22.5931C0.817878 23.1432 0.817876 24.035 1.36795 24.5851L1.87299 25.0901L2.2185 24.7446L1.87299 25.0901C2.42306 25.6402 3.31489 25.6402 3.86496 25.0901L20.0153 8.9398C20.2771 8.67798 20.7254 8.8461 20.7505 9.21553L21.5511 21.001C21.6331 22.2075 23.0973 22.7566 23.9524 21.9015L24.5944 21.2595C24.8787 20.9752 25.028 20.583 25.0046 20.1816L24.0443 3.69705C24.0027 2.98232 23.4315 2.41252 22.7167 2.37262L6.231 1.4523C5.83076 1.42995 5.43995 1.5792 5.1565 1.86266Z" fill="white" stroke="white" stroke-width="0.977265"/>
</svg>
