<svg width="36" height="27" viewBox="0 0 36 27" fill="none" xmlns="http://www.w3.org/2000/svg">
<path d="M19.919 7.88986L14.9162 15.1525C13.7369 15.0989 12.5497 15.4325 11.5643 16.0802L0.578977 11.5608C0.578977 11.5608 0.324785 15.74 1.38411 18.8546L9.15009 22.057C9.54002 23.7984 10.7354 25.3259 12.4991 26.0607C15.3846 27.2656 18.7116 25.8924 19.912 23.0075C20.2243 22.2534 20.37 21.4624 20.3489 20.6732L27.6825 15.5646C31.9661 15.5646 35.4478 12.0746 35.4478 7.78884C35.4478 3.50269 31.9661 0.0158997 27.6825 0.0158997C23.5451 0.0158997 19.6871 3.62604 19.919 7.88986ZM18.7169 22.5059C17.7879 24.7349 15.2247 25.7924 12.9967 24.8647C11.9689 24.4368 11.1929 23.6529 10.7453 22.7181L13.2731 23.7651C14.9162 24.4491 16.8013 23.6704 17.4843 22.0289C18.1694 20.3856 17.3922 18.4986 15.75 17.8146L13.1368 16.7326C14.1451 16.3503 15.2914 16.3362 16.3624 16.7817C17.4422 17.2306 18.2799 18.076 18.7239 19.1563C19.1679 20.2366 19.1661 21.4291 18.7169 22.5059ZM27.6825 12.9691C24.8308 12.9691 22.5092 10.6453 22.5092 7.78884C22.5092 4.93463 24.8308 2.61021 27.6825 2.61021C30.5359 2.61021 32.8576 4.93463 32.8576 7.78884C32.8576 10.6453 30.5359 12.9691 27.6825 12.9691ZM23.806 7.78095C23.806 5.63209 25.5468 3.88922 27.6913 3.88922C29.8375 3.88922 31.5783 5.63209 31.5783 7.78095C31.5783 9.92999 29.8375 11.6713 27.6913 11.6713C25.5468 11.6713 23.806 9.92999 23.806 7.78095Z" fill="white"/>
</svg>
